<svg xmlns="http://www.w3.org/2000/svg" width="512" height="512"><path d="M53.333 0h405.333C488.122 0 512 23.878 512 53.333v405.333C512 488.122 488.122 512 458.667 512H53.333C23.878 512 0 488.122 0 458.667V53.333C0 23.878 23.878 0 53.333 0z" data-original="#2196F3" class="active-path" data-old_color="#2196F3" fill="#4dadff"/><path d="M394.667 149.333h42.667c5.891 0 10.667-4.776 10.667-10.667v-64C448 68.776 443.224 64 437.333 64h-42.667c-64.801 0-117.333 52.532-117.333 117.333v53.333H224c-5.891 0-10.667 4.776-10.667 10.667v64c0 5.891 4.776 10.667 10.667 10.667h53.333v192h85.333V320H416a10.666 10.666 0 0010.112-7.296l21.333-64c1.862-5.589-1.16-11.629-6.749-13.491a10.676 10.676 0 00-3.363-.547h-74.667v-53.333c.001-17.673 14.328-32 32.001-32z" data-original="#FAFAFA" fill="#fafafa"/></svg>